<?xml version="1.0" standalone="no"?>
<!DOCTYPE svg PUBLIC "-//W3C//DTD SVG 20010904//EN"
 "http://www.w3.org/TR/2001/REC-SVG-20010904/DTD/svg10.dtd">
<svg version="1.0" xmlns="http://www.w3.org/2000/svg"
 width="501.000000pt" height="501.000000pt" viewBox="0 0 501.000000 501.000000"
 preserveAspectRatio="xMidYMid meet">
<metadata>
Created by potrace 1.11, written by Peter Selinger 2001-2013
</metadata>
<g transform="translate(0.000000,501.000000) scale(0.100000,-0.100000)"
fill="#000000" stroke="none">
<path d="M2578 4991 c-103 -21 -201 -69 -307 -151 l-75 -58 -27 38 c-80 111
-234 104 -349 -16 l-45 -47 40 31 c56 44 115 63 157 51 35 -9 80 -50 91 -81 8
-22 3 -22 -26 -3 -32 21 -93 25 -152 10 -163 -42 -272 -13 -311 82 -23 55 -19
71 25 84 35 10 45 9 96 -15 39 -18 53 -21 44 -10 -46 55 -173 62 -201 10 -18
-32 -19 -47 -7 -93 13 -48 63 -107 106 -125 15 -6 74 -12 130 -13 89 -2 109
-5 158 -30 31 -15 55 -29 53 -30 -2 -2 -28 5 -58 15 -45 15 -80 17 -190 15
-74 -2 -142 -5 -150 -8 -8 -2 -33 -7 -55 -12 -43 -8 -110 -39 -120 -55 -3 -5
11 -2 32 7 28 12 68 17 148 17 96 0 120 -4 184 -28 40 -15 88 -37 105 -48 l31
-19 -34 6 c-59 12 -154 8 -221 -10 -75 -20 -183 -26 -222 -13 -37 13 -96 70
-103 101 -16 60 60 136 139 139 42 1 38 18 -5 18 -45 0 -152 -53 -197 -98 -67
-67 -66 -128 4 -211 23 -28 24 -31 7 -31 -43 0 -122 32 -179 72 -144 101 -182
154 -149 204 9 14 26 29 38 34 21 9 21 9 1 9 -11 1 -31 -11 -45 -25 -19 -20
-24 -36 -23 -79 0 -44 5 -60 34 -96 18 -24 55 -62 81 -84 50 -41 57 -55 18
-34 -31 16 -152 13 -210 -6 -110 -37 -171 -167 -96 -207 20 -10 20 -10 -1 16
-29 38 -19 88 26 121 23 17 42 20 122 20 91 0 210 -25 210 -43 0 -4 -23 -13
-51 -19 -173 -42 -276 -145 -255 -257 11 -57 74 -93 115 -67 10 6 2 9 -24 8
-43 -1 -75 28 -75 70 0 39 38 97 83 126 55 36 79 36 45 0 -42 -44 -52 -79 -30
-108 24 -33 52 -39 52 -11 0 49 95 103 131 74 58 -47 41 -96 -40 -115 -73 -17
-132 -62 -201 -153 -79 -104 -125 -129 -175 -96 -50 33 -34 178 27 243 12 13
17 23 11 23 -17 0 -85 -82 -111 -132 -45 -91 -22 -161 66 -203 63 -30 178 -43
232 -27 19 6 78 24 130 41 l95 30 -40 -34 c-22 -19 -66 -54 -97 -77 -32 -24
-57 -50 -57 -58 0 -8 24 -41 54 -73 30 -31 55 -61 55 -65 0 -7 -38 -47 -329
-352 -87 -91 -188 -196 -224 -235 l-66 -69 30 -51 c65 -108 127 -253 154 -362
15 -62 27 -114 26 -115 0 -2 6 -24 14 -51 13 -44 13 -51 -5 -93 -11 -25 -20
-52 -20 -60 0 -8 -5 -14 -12 -14 -6 0 -8 -3 -5 -7 4 -3 1 -13 -5 -21 -10 -12
-7 -19 18 -41 54 -46 88 -75 139 -116 28 -21 52 -42 55 -45 28 -29 99 -77 106
-71 12 10 127 51 144 51 18 0 6 -52 -26 -115 -41 -82 -192 -228 -285 -275 -71
-37 -154 -31 -217 16 -39 30 -42 25 -5 -12 57 -57 151 -72 233 -36 25 11 117
54 205 97 88 42 156 72 150 67 -17 -17 -127 -105 -187 -150 -67 -51 -248 -233
-281 -282 -52 -78 -75 -197 -44 -229 10 -11 8 -13 -13 -8 -14 3 -46 9 -72 12
-46 7 -84 34 -89 65 -8 52 42 100 104 100 14 0 28 4 31 8 4 7 -18 8 -75 3 -8
0 -34 -17 -57 -37 -66 -56 -90 -117 -70 -177 20 -60 61 -91 138 -102 63 -9 98
-39 131 -109 15 -34 37 -77 48 -96 28 -48 167 -343 222 -471 l21 -49 1584 1
1584 0 -4 102 c-5 158 29 335 99 522 63 166 101 277 140 411 31 103 27 88 58
229 37 165 56 323 58 487 l2 86 46 33 c77 54 110 90 127 141 18 56 12 88 -19
88 -16 0 -18 -3 -9 -12 18 -18 15 -43 -8 -63 -17 -15 -31 -17 -89 -12 -39 3
-79 11 -90 17 -20 10 -20 12 15 42 19 17 54 59 78 92 45 65 131 225 124 232
-3 2 -19 -16 -36 -40 -44 -60 -97 -109 -123 -113 -39 -6 -108 27 -129 63 -37
59 -33 97 25 219 89 184 125 344 120 526 l-3 99 75 77 c41 43 84 92 94 108 21
33 25 65 9 65 -5 0 -10 -4 -10 -9 0 -14 -61 -69 -94 -85 -46 -22 -106 -26
-138 -10 -15 8 -38 30 -51 49 -20 30 -23 42 -17 81 22 141 -75 317 -291 532
l-102 101 54 48 c93 83 127 119 148 162 12 22 18 41 14 41 -5 0 -31 -22 -58
-48 -81 -76 -123 -96 -195 -94 -54 2 -70 11 -156 89 -138 126 -147 133 -241
189 -138 82 -201 111 -309 141 -107 29 -110 30 -102 38 13 13 199 -36 273 -71
106 -50 104 -50 74 -21 -58 56 -334 175 -444 191 -22 4 -48 9 -58 12 -49 15
-202 28 -339 29 -58 0 -104 3 -102 7 2 3 37 16 77 29 86 27 209 29 276 6 35
-13 41 -13 30 -2 -8 8 -54 25 -104 38 -159 42 -288 22 -441 -68 l-59 -35 62
59 c162 155 324 216 466 174 60 -18 72 -11 19 10 -61 24 -156 27 -254 8z"/>
</g>
</svg>
