<?xml version="1.0" encoding="utf-8"?>
<!-- Generator: Adobe Illustrator 24.1.2, SVG Export Plug-In . SVG Version: 6.00 Build 0)  -->
<svg version="1.1" id="Layer_1" xmlns="http://www.w3.org/2000/svg" xmlns:xlink="http://www.w3.org/1999/xlink" x="0px" y="0px"
	 viewBox="0 0 620.9 575.5" style="enable-background:new 0 0 620.9 575.5;" xml:space="preserve">
<style type="text/css">
	.st0{clip-path:url(#SVGID_2_);}
	.st1{fill-rule:evenodd;clip-rule:evenodd;}
	.st2{fill-rule:evenodd;clip-rule:evenodd;fill-opacity:0;}
	.st3{fill:none;stroke:#3D434D;stroke-width:8;stroke-linejoin:round;stroke-miterlimit:10;}
	.st4{fill:none;stroke:#3D434D;stroke-width:8;stroke-miterlimit:10;}
	.st5{fill:#CFE2F3;}
	.st6{fill:#6CE4CE;}
	.st7{fill:none;stroke:#FFFFFF;stroke-width:8;stroke-linejoin:round;stroke-miterlimit:10;}
	.st8{fill:none;stroke:#FFFFFF;stroke-width:8;stroke-miterlimit:10;}
	.st9{fill:none;stroke:#F3F3F3;stroke-width:8;stroke-linejoin:round;stroke-miterlimit:10;}
	.st10{fill:#FFFFFF;}
	.st11{fill:#929FEE;}
	.st12{display:none;fill:#3D434D;}
	.st13{fill:#3D434D;}
</style>
<g>
	<defs>
		<rect id="SVGID_1_" width="620.9" height="575.5"/>
	</defs>
	<clipPath id="SVGID_2_">
		<use xlink:href="#SVGID_1_"  style="overflow:visible;"/>
	</clipPath>
	<g class="st0">
		<path class="st1" d="M0,0h620.9v575.5H0V0z"/>
		<path class="st1" d="M476.1,446.2v-91.1H571v91.1H476.1z"/>
		<path class="st2" d="M492.1,360.6v61.5l61.7,0.3"/>
		<path class="st3" d="M492.1,360.6v61.5l31.4,0.1"/>
		<path class="st4" d="M549.8,422.4c0,7.3-5.9,13.1-13.2,13.1c-7.3,0-13.1-5.9-13.1-13.2c0-7.3,5.9-13.1,13.2-13.1
			C543.9,409.2,549.8,415.1,549.8,422.4z"/>
		<path class="st2" d="M360.3,128.8H174.9L174.1,67"/>
		<path class="st3" d="M360.3,128.8H174.9l-0.4-31.5"/>
		<path class="st4" d="M174.1,71c7.3-0.1,13.2,5.7,13.3,13s-5.7,13.2-13,13.3c-7.3,0.1-13.2-5.7-13.3-13S166.9,71.1,174.1,71z"/>
		<path class="st2" d="M223.7,158.7H102.8"/>
		<path class="st3" d="M223.7,158.7h-90.6"/>
		<path class="st4" d="M106.8,158.7c0-7.3,5.9-13.2,13.2-13.2s13.2,5.9,13.2,13.2s-5.9,13.2-13.2,13.2S106.8,166,106.8,158.7z"/>
		<path class="st2" d="M244.8,201.3H59.4l-0.8-61.8"/>
		<path class="st3" d="M244.8,201.3H59.4l-0.4-31.5"/>
		<path class="st4" d="M58.6,143.6c7.3-0.1,13.2,5.7,13.3,13c0.1,7.3-5.7,13.2-13,13.3c-7.3,0.1-13.2-5.7-13.3-13
			C45.5,149.6,51.3,143.7,58.6,143.6z"/>
		<path class="st2" d="M491.6,262.5v161l61.7,0.7"/>
		<path class="st3" d="M491.6,262.5v161l31.4,0.4"/>
		<path class="st4" d="M549.3,424.1c-0.1,7.3-6,13.1-13.3,13c-7.3-0.1-13.1-6-13-13.3s6-13.1,13.3-13
			C543.6,410.8,549.4,416.8,549.3,424.1z"/>
		<path class="st2" d="M220.6,242.1H102.7"/>
		<path class="st3" d="M220.6,242.1H133"/>
		<path class="st4" d="M106.7,242.1c0-7.3,5.9-13.2,13.2-13.2s13.2,5.9,13.2,13.2s-5.9,13.2-13.2,13.2S106.7,249.4,106.7,242.1z"/>
		<path class="st2" d="M221.6,279.9h-172"/>
		<path class="st3" d="M221.6,279.9H79.9"/>
		<path class="st4" d="M53.6,279.9c0-7.3,5.9-13.2,13.2-13.2s13.2,5.9,13.2,13.2s-5.9,13.2-13.2,13.2S53.6,287.2,53.6,279.9z"/>
		<path class="st2" d="M267.7,317.1h-96.6l-0.4,59.6"/>
		<path class="st3" d="M267.7,317.1h-96.6l-0.2,29.3"/>
		<path class="st4" d="M170.7,372.8c-7.3-0.1-13.1-6-13.1-13.3c0.1-7.3,6-13.1,13.3-13.1c7.3,0.1,13.1,6,13.1,13.3
			C183.9,367,178,372.8,170.7,372.8z"/>
		<path class="st2" d="M260.3,292.7v129l-61.7,0.6"/>
		<path class="st3" d="M260.3,292.7v129l-31.4,0.3"/>
		<path class="st4" d="M202.6,422.2c-0.1-7.3,5.8-13.2,13-13.3s13.2,5.8,13.3,13c0.1,7.3-5.8,13.2-13,13.3
			C208.6,435.3,202.7,429.5,202.6,422.2z"/>
		<path class="st2" d="M454.6,346.2v143.4"/>
		<path class="st3" d="M454.6,346.2v113.1"/>
		<path class="st4" d="M454.6,485.5c-7.3,0-13.2-5.9-13.2-13.2s5.9-13.2,13.2-13.2s13.2,5.9,13.2,13.2S461.9,485.5,454.6,485.5z"/>
		<path class="st2" d="M412.1,360.6v161l-89.3,0.7"/>
		<path class="st3" d="M412.1,360.6v161l-59,0.5"/>
		<path class="st4" d="M326.8,522.2c-0.1-7.3,5.8-13.2,13.1-13.3c7.3-0.1,13.2,5.8,13.3,13.1c0.1,7.3-5.8,13.2-13.1,13.3
			C332.8,535.3,326.9,529.5,326.8,522.2z"/>
		<path class="st2" d="M374.6,346.2v143.4"/>
		<path class="st3" d="M374.6,346.2v113.1"/>
		<path class="st4" d="M374.6,485.5c-7.3,0-13.2-5.9-13.2-13.2s5.9-13.2,13.2-13.2s13.2,5.9,13.2,13.2S381.9,485.5,374.6,485.5z"/>
		<path class="st2" d="M336.5,344.1v97"/>
		<path class="st3" d="M336.5,344.1v66.7"/>
		<path class="st4" d="M336.5,437c-7.3,0-13.2-5.9-13.2-13.2s5.9-13.2,13.2-13.2s13.2,5.9,13.2,13.2S343.8,437,336.5,437z"/>
		<path class="st2" d="M298,345.2v129l-61.7,0.6"/>
		<path class="st3" d="M298,345.2v129l-31.4,0.3"/>
		<path class="st4" d="M240.4,474.8c-0.1-7.3,5.8-13.2,13-13.3c7.3-0.1,13.2,5.8,13.3,13c0.1,7.3-5.8,13.2-13,13.3
			C246.4,487.9,240.4,482,240.4,474.8z"/>
		<path class="st1" d="M219.5,86L219.5,86c0-6.8,5.5-12.4,12.4-12.4h307.9c3.3,0,6.4,1.3,8.8,3.6s3.6,5.5,3.6,8.8v262.2
			c0,6.8-5.5,12.4-12.4,12.4H231.8c-6.8,0-12.4-5.5-12.4-12.4L219.5,86z"/>
		<path class="st2" d="M235.7,70.6L235.7,70.6c0-6.8,5.5-12.4,12.4-12.4h339.6c3.3,0,6.4,1.3,8.8,3.6c2.3,2.3,3.6,5.5,3.6,8.8v262.2
			c0,6.8-5.5,12.4-12.4,12.4H248.1l0,0c-6.8,0-12.4-5.5-12.4-12.4L235.7,70.6z"/>
		<path class="st3" d="M235.7,70.6L235.7,70.6c0-6.8,5.5-12.4,12.4-12.4h339.6c3.3,0,6.4,1.3,8.8,3.6c2.3,2.3,3.6,5.5,3.6,8.8v262.2
			c0,6.8-5.5,12.4-12.4,12.4H248.1l0,0c-6.8,0-12.4-5.5-12.4-12.4L235.7,70.6z"/>
		<path class="st1" d="M199.5,43.3h447.9v56.8H199.5V43.3z"/>
		<path class="st1" d="M548,392.6V-2.7h94.9v395.4H548z"/>
		<path class="st2" d="M265.9,110h208.7v72.7H265.9V110z"/>
		<path class="st2" d="M250.1,188.4h351v90.2h-351L250.1,188.4z"/>
		<path class="st5" d="M283,310v-62h-21v-14.5h59.4v14.5h-21v62H283z M333.4,310v-76.5h47.9v14.5h-30.6v15.4h26v14.4h-26v17.6h31.8
			V310H333.4z M415.6,271.3l-1.9,7H430l-1.8-7c-1.1-3.8-2.2-7.9-3.2-12.2c-1-4.3-2-8.4-3-12.4h-0.5c-0.9,4.1-1.9,8.2-2.9,12.5
			C417.7,263.4,416.7,267.5,415.6,271.3z M387.9,310l23.9-76.5h20.8l23.9,76.5h-18.3l-4.7-18.2h-23.3l-4.7,18.2H387.9z M464.9,310
			v-76.5h18.9l12.3,34c0.8,2.3,1.5,4.6,2.2,7c0.7,2.4,1.5,4.8,2.2,7.1h0.5c0.8-2.3,1.5-4.7,2.2-7.1c0.7-2.4,1.4-4.7,2.2-7l12.1-34
			h18.8V310h-15.7v-28c0-1.9,0.1-3.9,0.2-6.2c0.2-2.3,0.4-4.6,0.6-6.9c0.2-2.3,0.5-4.6,0.7-6.8c0.2-2.2,0.5-4.3,0.7-6.2h-0.5
			l-6.2,18.2l-10.9,29.2h-9.5l-10.9-29.2l-6.1-18.2h-0.5c0.2,1.9,0.5,3.9,0.7,6.2c0.2,2.2,0.5,4.5,0.7,6.8c0.2,2.3,0.4,4.6,0.6,6.9
			c0.2,2.3,0.2,4.3,0.2,6.2v28H464.9z"/>
		<path class="st2" d="M246,110.3h289.5V218H246L246,110.3z"/>
		<path class="st6" d="M310.7,147.3h-24.6v62.9h-4.8v-62.9h-24.6v-4.3h54V147.3z M365.9,205.8v4.4h-44.8v-67.2h43.9v4.3H326v26.4
			h34.2v4.2H326v27.9H365.9z M373,176.1c0-4,0.7-8.1,2.1-12.1c1.4-4,3.5-7.6,6.2-10.8c2.7-3.2,6-5.7,10-7.7c3.9-2,8.4-3,13.5-3
			c6,0,11.1,1.4,15.3,4.1c4.2,2.7,7.4,6.3,9.5,10.5l-4,2.3c-1.2-2.3-2.6-4.3-4.2-5.9c-1.6-1.6-3.3-2.9-5.2-3.8s-3.8-1.7-5.8-2.1
			c-2-0.4-4-0.7-6-0.7c-4.3,0-8.1,0.9-11.4,2.6s-6.1,4-8.3,6.8c-2.3,2.8-4,5.9-5.2,9.4s-1.8,7-1.8,10.5c0,4,0.7,7.8,2.1,11.4
			c1.4,3.6,3.3,6.8,5.7,9.5c2.4,2.7,5.2,4.9,8.5,6.6c3.3,1.6,6.8,2.5,10.6,2.5c2,0,4.1-0.2,6.2-0.8c2.1-0.5,4.2-1.3,6.1-2.4
			c2-1.1,3.8-2.4,5.5-4.1c1.7-1.7,3.1-3.7,4.3-5.9l4.2,2c-1.1,2.5-2.7,4.8-4.6,6.7c-2,2-4.1,3.6-6.5,4.9c-2.4,1.3-4.9,2.3-7.6,3
			c-2.7,0.7-5.3,1-7.9,1c-4.6,0-8.8-1-12.6-3c-3.8-2-7.1-4.7-9.9-7.9c-2.8-3.2-4.9-6.9-6.5-11.1C373.8,184.6,373,180.3,373,176.1z
			 M495,142.9v67.2h-4.8v-32.2h-42.4v32.2H443v-67.2h4.8v30.7h42.4v-30.7H495z"/>
		<path class="st2" d="M-349.2,362.6h-185.4l-0.8-61.8"/>
		<path class="st7" d="M-349.2,362.6h-185.4l-0.4-31.5"/>
		<path class="st8" d="M-535.4,304.8c7.3-0.1,13.2,5.7,13.3,13s-5.7,13.2-13,13.3s-13.2-5.7-13.3-13S-542.6,304.9-535.4,304.8z"/>
		<path class="st2" d="M-485.8,392.5h-120.9"/>
		<path class="st7" d="M-485.8,392.5h-90.6"/>
		<path class="st8" d="M-602.7,392.5c0-7.3,5.9-13.2,13.2-13.2s13.2,5.9,13.2,13.2s-5.9,13.2-13.2,13.2S-602.7,399.7-602.7,392.5z"
			/>
		<path class="st2" d="M-464.7,435.1h-185.4l-0.8-61.8"/>
		<path class="st7" d="M-464.7,435.1h-185.4l-0.4-31.5"/>
		<path class="st8" d="M-650.9,377.3c7.3-0.1,13.2,5.7,13.3,13c0.1,7.3-5.7,13.2-13,13.3c-7.3,0.1-13.2-5.7-13.3-13
			C-664,383.4-658.2,377.4-650.9,377.3z"/>
		<path class="st2" d="M-489,475.9h-117.9"/>
		<path class="st7" d="M-489,475.9h-87.6"/>
		<path class="st8" d="M-602.8,475.9c0-7.3,5.9-13.2,13.2-13.2s13.2,5.9,13.2,13.2s-5.9,13.2-13.2,13.2S-602.8,483.2-602.8,475.9z"
			/>
		<path class="st2" d="M-487.9,513.7h-172"/>
		<path class="st7" d="M-487.9,513.7h-141.7"/>
		<path class="st8" d="M-655.9,513.7c0-7.3,5.9-13.2,13.2-13.2s13.2,5.9,13.2,13.2s-5.9,13.2-13.2,13.2S-655.9,521-655.9,513.7z"/>
		<path class="st2" d="M-441.8,548.8h-96.6l-0.4,59.6"/>
		<path class="st7" d="M-441.8,548.8h-96.6l-0.2,29.3"/>
		<path class="st8" d="M-538.8,604.4c-7.3-0.1-13.1-6-13.1-13.3c0.1-7.3,6-13.1,13.3-13.1c7.3,0.1,13.1,6,13.1,13.3
			C-525.6,598.6-531.5,604.5-538.8,604.4z"/>
		<path class="st2" d="M-449.2,522.2v129l-61.7,0.6"/>
		<path class="st7" d="M-449.2,522.2v129l-31.4,0.3"/>
		<path class="st8" d="M-506.9,651.8c-0.1-7.3,5.8-13.2,13-13.3c7.3-0.1,13.2,5.8,13.3,13c0.1,7.3-5.8,13.2-13,13.3
			S-506.8,659-506.9,651.8z"/>
		<path class="st2" d="M-254.9,577.8v143.4"/>
		<path class="st7" d="M-254.9,577.8v113.1"/>
		<path class="st8" d="M-254.9,717.2c-7.3,0-13.2-5.9-13.2-13.2s5.9-13.2,13.2-13.2c7.3,0,13.2,5.9,13.2,13.2
			S-247.6,717.2-254.9,717.2z"/>
		<path class="st2" d="M-297.4,592.2v161l-89.3,0.7"/>
		<path class="st7" d="M-297.4,592.2v161l-59,0.5"/>
		<path class="st8" d="M-382.7,753.8c-0.1-7.3,5.8-13.2,13.1-13.3s13.2,5.8,13.3,13.1c0.1,7.3-5.8,13.2-13.1,13.3
			S-382.6,761.1-382.7,753.8z"/>
		<path class="st2" d="M-334.9,577.8v143.4"/>
		<path class="st7" d="M-334.9,577.8v113.1"/>
		<path class="st8" d="M-334.9,717.2c-7.3,0-13.2-5.9-13.2-13.2s5.9-13.2,13.2-13.2s13.2,5.9,13.2,13.2S-327.6,717.2-334.9,717.2z"
			/>
		<path class="st2" d="M-373,577.8v97"/>
		<path class="st7" d="M-373,577.8v66.7"/>
		<path class="st8" d="M-373,670.8c-7.3,0-13.2-5.9-13.2-13.2s5.9-13.2,13.2-13.2s13.2,5.9,13.2,13.2S-365.7,670.8-373,670.8z"/>
		<path class="st2" d="M-411.5,576.9v129l-61.7,0.6"/>
		<path class="st7" d="M-411.5,576.9v129l-31.4,0.3"/>
		<path class="st8" d="M-469.1,706.4c-0.1-7.3,5.8-13.2,13-13.3c7.3-0.1,13.2,5.8,13.3,13c0.1,7.3-5.8,13.2-13,13.3
			C-463.1,719.5-469.1,713.7-469.1,706.4z"/>
		<path class="st1" d="M-493.7,317.7L-493.7,317.7c0-6.8,5.5-12.4,12.4-12.4h292.1c3.3,0,6.4,1.3,8.8,3.6c2.3,2.3,3.6,5.5,3.6,8.8
			v262.2c0,6.8-5.5,12.4-12.4,12.4h-292.1c-6.8,0-12.4-5.5-12.4-12.4V317.7z"/>
		<path class="st2" d="M-476.2,302.3L-476.2,302.3c0-6.8,5.5-12.4,12.4-12.4h292.1c3.3,0,6.4,1.3,8.8,3.6c2.3,2.3,3.6,5.5,3.6,8.8
			v262.2c0,6.8-5.5,12.4-12.4,12.4h-292.1c-6.8,0-12.4-5.5-12.4-12.4V302.3z"/>
		<path class="st9" d="M-476.2,302.3L-476.2,302.3c0-6.8,5.5-12.4,12.4-12.4h292.1c3.3,0,6.4,1.3,8.8,3.6c2.3,2.3,3.6,5.5,3.6,8.8
			v262.2c0,6.8-5.5,12.4-12.4,12.4h-292.1c-6.8,0-12.4-5.5-12.4-12.4V302.3z"/>
		<path class="st1" d="M-518.5,259.5h395.4v56.8h-395.4V259.5z"/>
		<path class="st1" d="M-237,654.9V259.5h94.9v395.4H-237z"/>
		<path class="st2" d="M-443.6,348h208.7v72.7h-208.7V348z"/>
		<path class="st2" d="M-470,361.7h351V452h-351V361.7z"/>
		<path class="st10" d="M-432.8,408.5v43.1h9.4c0.9,0,1.5,0.2,1.8,0.5c0.4,0.3,0.6,0.8,0.6,1.3c0,0.5-0.2,1-0.6,1.3
			c-0.4,0.3-1,0.5-1.8,0.5h-22.4c-0.9,0-1.5-0.2-1.9-0.5c-0.4-0.3-0.5-0.8-0.5-1.3c0-0.5,0.2-1,0.5-1.3c0.4-0.3,1-0.5,1.9-0.5h9.4
			v-43.1h-14.8v12.5c0,0.9-0.2,1.5-0.5,1.9c-0.3,0.4-0.8,0.5-1.3,0.5c-0.5,0-1-0.2-1.3-0.5c-0.3-0.4-0.5-1-0.5-1.9v-16.1h40.4v16.1
			c0,0.9-0.2,1.5-0.5,1.9c-0.3,0.4-0.8,0.5-1.3,0.5c-0.6,0-1-0.2-1.3-0.5c-0.3-0.4-0.5-1-0.5-1.9v-12.5H-432.8z M-393.5,430.9v20.7
			h27.8v-10.7c0-0.9,0.2-1.5,0.5-1.8c0.3-0.4,0.8-0.6,1.3-0.6c0.5,0,1,0.2,1.3,0.6c0.3,0.4,0.5,1,0.5,1.8v14.3H-402
			c-0.9,0-1.5-0.2-1.8-0.5c-0.4-0.3-0.6-0.8-0.6-1.3c0-0.5,0.2-1,0.6-1.3c0.4-0.3,1-0.5,1.8-0.5h4.9v-43.1h-4.9
			c-0.9,0-1.5-0.2-1.8-0.5c-0.4-0.3-0.6-0.8-0.6-1.3c0-0.5,0.2-1,0.6-1.3c0.4-0.3,1-0.5,1.8-0.5h37.9v12.4c0,0.9-0.2,1.5-0.5,1.9
			c-0.3,0.4-0.8,0.5-1.3,0.5c-0.5,0-1-0.2-1.3-0.5c-0.3-0.4-0.5-1-0.5-1.9v-8.8h-25.9v18.8h12.9v-4.1c0-0.9,0.2-1.5,0.5-1.8
			c0.3-0.4,0.8-0.6,1.3-0.6c0.5,0,0.9,0.2,1.3,0.6c0.3,0.4,0.5,1,0.5,1.8V435c0,0.9-0.2,1.5-0.5,1.9c-0.3,0.4-0.8,0.5-1.3,0.5
			c-0.5,0-1-0.2-1.3-0.5c-0.3-0.4-0.5-1-0.5-1.9v-4.1H-393.5z M-313.1,409.9v-2.5c0-0.9,0.2-1.5,0.5-1.8c0.3-0.4,0.8-0.6,1.3-0.6
			c0.5,0,1,0.2,1.3,0.6c0.3,0.4,0.5,1,0.5,1.8v10c0,0.9-0.2,1.5-0.5,1.9c-0.3,0.4-0.8,0.6-1.3,0.6c-0.5,0-0.9-0.2-1.2-0.5
			c-0.3-0.3-0.5-0.9-0.6-1.7c-0.1-2.4-1.4-4.5-3.9-6.4c-3.3-2.6-7.1-3.8-11.3-3.8c-2.8,0-5.4,0.6-7.9,1.8c-1.8,0.9-3.3,2-4.4,3.3
			c-1.9,2.2-3.4,4.7-4.5,7.4c-0.8,2-1.2,4.3-1.2,6.8v6.3c0,5.4,1.9,10.1,5.8,14c3.9,4,8.4,6,13.6,6c3.1,0,5.9-0.7,8.3-2
			c2.5-1.4,4.8-3.4,7.1-6.1c0.5-0.6,1-0.9,1.6-0.9c0.5,0,0.9,0.2,1.2,0.5c0.3,0.3,0.5,0.7,0.5,1.2c0,0.7-0.6,1.7-1.8,3
			c-2.4,2.6-5,4.6-7.9,6c-2.9,1.3-5.9,2-8.9,2c-2.6,0-5.3-0.5-8-1.5c-2.1-0.8-3.8-1.7-5.1-2.7c-1.3-1-3-2.8-5-5.2
			c-2-2.4-3.3-4.7-4-6.8c-0.7-2.1-1.1-4.4-1.1-6.9v-7.3c0-3.6,1-7.2,2.9-10.9c1.9-3.7,4.5-6.6,7.8-8.6c3.3-2,6.9-3,10.8-3
			C-322.5,403.8-317.4,405.8-313.1,409.9z M-263.9,430.9h-23.9v20.7h4.8c0.9,0,1.5,0.2,1.8,0.5c0.4,0.3,0.6,0.8,0.6,1.3
			c0,0.5-0.2,1-0.6,1.3c-0.4,0.3-1,0.5-1.8,0.5h-12.5c-0.9,0-1.5-0.2-1.8-0.5c-0.4-0.3-0.6-0.8-0.6-1.3c0-0.5,0.2-1,0.6-1.3
			c0.4-0.3,1-0.5,1.8-0.5h4.1v-43.1h-2.2c-0.9,0-1.5-0.2-1.9-0.5c-0.4-0.3-0.5-0.8-0.5-1.3c0-0.5,0.2-1,0.5-1.3
			c0.4-0.3,1-0.5,1.9-0.5h10.7c0.9,0,1.5,0.2,1.8,0.5c0.4,0.3,0.6,0.8,0.6,1.3c0,0.5-0.2,1-0.6,1.3c-0.4,0.3-1,0.5-1.8,0.5h-4.8
			v18.7h23.9v-18.7h-4.8c-0.9,0-1.5-0.2-1.8-0.5c-0.4-0.3-0.6-0.8-0.6-1.3c0-0.5,0.2-1,0.5-1.3c0.4-0.3,1-0.5,1.9-0.5h10.7
			c0.9,0,1.5,0.2,1.9,0.5c0.4,0.3,0.6,0.8,0.6,1.3c0,0.5-0.2,1-0.6,1.3c-0.4,0.3-1,0.5-1.9,0.5h-2.2v43.1h4.1c0.9,0,1.5,0.2,1.8,0.5
			c0.4,0.3,0.6,0.8,0.6,1.3c0,0.5-0.2,1-0.6,1.3c-0.4,0.3-1,0.5-1.8,0.5h-12.5c-0.9,0-1.5-0.2-1.8-0.5c-0.4-0.3-0.6-0.8-0.6-1.3
			c0-0.5,0.2-1,0.5-1.3c0.4-0.3,1-0.5,1.9-0.5h4.8V430.9z"/>
		<path class="st2" d="M-465.8,454.1h264.6v72.7h-264.6V454.1z"/>
		<path class="st10" d="M-437.4,488.1h-19v-4.9h43.8v4.9h-19v49.2h-5.7V488.1z M-365.3,532.4v5h-38.3v-54.1h37.1v4.9h-31.4v19.3h28
			v4.9h-28v20.1H-365.3z M-317.9,522.9H-348l-6.5,14.5h-6l24.8-54.1h5.6l24.8,54.1h-6L-317.9,522.9z M-320,518.2l-13-29.1l-13,29.1
			H-320z M-240.2,483.2v54.1h-5.5V494l-21.3,36.4h-2.7l-21.3-36.2v43.1h-5.5v-54.1h4.7l23.5,40.1l23.3-40.1H-240.2z"/>
		<path class="st2" d="M-377.6,273.6H-113v107.8h-264.6V273.6z"/>
		<path class="st10" d="M-350.4,368.4v-47.2h-16v-11.1h45.2v11.1h-16v47.2H-350.4z M-312.1,368.4v-58.2h36.5v11.1h-23.3v11.7h19.8
			v11h-19.8v13.4h24.2v11.1H-312.1z M-238.8,369.5c-3.7,0-7.2-0.6-10.5-1.9c-3.3-1.3-6.1-3.2-8.6-5.7c-2.5-2.5-4.4-5.6-5.8-9.3
			c-1.4-3.7-2.1-8-2.1-12.9c0-4.8,0.7-9.1,2.2-12.9c1.5-3.8,3.5-7,6-9.6c2.5-2.6,5.4-4.6,8.8-6c3.3-1.4,6.8-2.1,10.5-2.1
			c3.8,0,7.1,0.8,10.1,2.3c3,1.5,5.4,3.3,7.4,5.3l-7,8.4c-1.5-1.4-3.1-2.5-4.7-3.3c-1.6-0.9-3.5-1.3-5.6-1.3c-2,0-3.8,0.4-5.6,1.3
			c-1.7,0.9-3.3,2.1-4.5,3.7c-1.3,1.6-2.3,3.6-3,5.9c-0.7,2.3-1.1,4.9-1.1,7.9c0,6,1.3,10.7,3.8,14c2.6,3.3,6,5,10.3,5
			c2.4,0,4.5-0.5,6.4-1.6c1.9-1.1,3.5-2.3,5-3.9l7,8.2C-224.8,366.6-231.1,369.5-238.8,369.5z M-211.1,368.4v-58.2h13.1v22.4h20.1
			v-22.4h13.2v58.2h-13.2v-24.3H-198v24.3H-211.1z"/>
		<path class="st2" d="M-379.3,404.7h264.6v107.8h-264.6V404.7z"/>
		<path class="st10" d="M-321.2,437.5v7.5h-19.5v54.4h-8.7V445h-19.5v-7.5H-321.2z M-312.1,499.4v-61.9h37.8v7.4h-29.1v18.4h25.9
			v7.2h-25.9V492h31.4v7.4H-312.1z M-237,500.8c-4.3,0-8.3-0.7-11.9-2.1c-3.6-1.4-6.6-3.5-9.2-6.3c-2.6-2.7-4.5-6.1-5.9-10.1
			c-1.4-4-2.1-8.6-2.1-13.8c0-5.2,0.8-9.8,2.4-13.8c1.6-4,3.7-7.4,6.4-10.1c2.7-2.7,5.8-4.8,9.4-6.2c3.6-1.4,7.4-2.1,11.4-2.1
			c2.6,0,4.9,0.2,6.9,0.5c2.1,0.4,3.8,0.8,5.4,1.2c1.5,0.5,2.8,1,3.7,1.4c1,0.5,1.6,0.8,2,1.1l-2.5,7.1c-0.5-0.4-1.3-0.7-2.3-1.2
			c-1-0.4-2.2-0.8-3.4-1.2c-1.3-0.4-2.7-0.8-4.2-1c-1.5-0.3-3-0.4-4.6-0.4c-3.3,0-6.2,0.6-8.8,1.7c-2.6,1.1-4.8,2.8-6.7,4.9
			c-1.8,2.1-3.3,4.7-4.2,7.8c-1,3.1-1.5,6.5-1.5,10.3c0,3.7,0.4,7.1,1.3,10.1c0.9,3,2.2,5.6,3.9,7.8c1.7,2.2,3.9,3.8,6.5,5
			c2.6,1.2,5.6,1.8,9.1,1.8c4,0,7.3-0.4,9.9-1.2c2.6-0.8,4.6-1.6,5.9-2.2l2.2,7.1c-0.4,0.3-1.2,0.7-2.2,1.1c-1.1,0.4-2.4,0.9-4,1.3
			c-1.6,0.4-3.5,0.8-5.6,1.1C-232.2,500.6-234.5,500.8-237,500.8z M-169.3,437.5h8.7v61.9h-8.7v-28.6h-30.3v28.6h-8.7v-61.9h8.7
			v25.8h30.3V437.5z"/>
		<path class="st2" d="M-375.1,513.5h264.6v107.8h-264.6V513.5z"/>
		<path class="st10" d="M-313.5,549h-23.2v59.3h-4.6V549h-23.2v-4.1h51V549z M-261.5,604.2v4.1h-42.2v-63.4h41.4v4.1h-36.9v24.9
			h32.2v3.9h-32.2v26.3H-261.5z M-254.8,576.1c0-3.8,0.7-7.6,2-11.4c1.3-3.8,3.3-7.2,5.8-10.1c2.6-3,5.7-5.4,9.4-7.3
			c3.7-1.9,8-2.8,12.7-2.8c5.7,0,10.5,1.3,14.5,3.9c4,2.6,7,5.9,8.9,10l-3.8,2.1c-1.1-2.2-2.4-4-4-5.5c-1.5-1.5-3.2-2.7-4.9-3.6
			c-1.8-0.9-3.6-1.6-5.5-2c-1.9-0.4-3.8-0.6-5.6-0.6c-4.1,0-7.6,0.8-10.7,2.5c-3.1,1.6-5.7,3.8-7.9,6.4c-2.1,2.6-3.8,5.6-4.9,8.9
			c-1.1,3.3-1.7,6.6-1.7,10c0,3.8,0.7,7.3,2,10.7c1.3,3.4,3.1,6.4,5.4,9c2.3,2.6,4.9,4.7,8,6.2c3.1,1.6,6.4,2.3,10,2.3
			c1.9,0,3.9-0.2,5.9-0.7c2-0.5,4-1.2,5.8-2.2c1.9-1,3.6-2.3,5.2-3.9c1.6-1.6,3-3.4,4-5.6l3.9,1.9c-1.1,2.4-2.5,4.5-4.4,6.3
			s-3.9,3.4-6.2,4.6c-2.3,1.2-4.7,2.2-7.2,2.8s-5,0.9-7.5,0.9c-4.3,0-8.3-1-11.9-2.9c-3.6-1.9-6.7-4.4-9.3-7.5
			c-2.6-3.1-4.7-6.5-6.1-10.4C-254,584.2-254.8,580.2-254.8,576.1z M-139.6,544.9v63.4h-4.6v-30.4h-40v30.4h-4.5v-63.4h4.5v28.9h40
			v-28.9H-139.6z"/>
		<path class="st2" d="M-334.5,531.1h351v90.2h-351V531.1z"/>
		<path class="st10" d="M-295.4,571.3V635c0,0.9-0.4,1.3-1.3,1.3h-4.4c-0.9,0-1.3-0.4-1.3-1.3v-63.7h-19.8c-0.9,0-1.3-0.4-1.3-1.3
			v-3.3c0-0.9,0.4-1.3,1.3-1.3h46.8c0.9,0,1.3,0.4,1.3,1.3v3.3c0,0.9-0.4,1.3-1.3,1.3H-295.4z M-260.8,636.5c-1.3,0-2.1-0.1-2.4-0.3
			c-0.2-0.2-0.3-1-0.3-2.3v-66.1c0-1.2,0.1-1.9,0.3-2.2c0.2-0.2,0.9-0.3,2.2-0.3h33.3c0.9,0,1.3,0.4,1.3,1.3v3.4
			c0,0.9-0.4,1.3-1.3,1.3h-28.8v25.3h27.4c0.9,0,1.3,0.4,1.3,1.3v3.5c0,0.9-0.4,1.3-1.3,1.3h-27.4v27.6h30c0.9,0,1.3,0.4,1.3,1.3
			v3.5c0,0.9-0.4,1.3-1.3,1.3H-260.8z M-167.1,611.2c-2.7-6.7-5.3-13.2-7.7-19.7c-2.5-6.5-5-13.1-7.7-19.7
			c-2.7,6.7-5.3,13.2-7.9,19.7c-2.6,6.5-5.2,13.1-7.9,19.7H-167.1z M-150.4,635c0.3,0.9,0,1.3-0.9,1.3h-4.6c-0.4,0-0.7-0.1-1-0.2
			c-0.3-0.1-0.6-0.5-0.8-1.2l-7.1-17.7h-36.1c-1.2,3-2.4,5.9-3.5,8.8c-1.1,2.9-2.3,5.8-3.5,8.8c-0.3,0.6-0.5,1-0.8,1.2
			c-0.3,0.1-0.6,0.2-1,0.2h-4.5c-0.9,0-1.2-0.4-0.9-1.3l28.2-68.7c0.3-0.8,0.9-1.2,1.7-1.2h5.9c0.8,0,1.4,0.4,1.7,1.2L-150.4,635z
			 M-65.3,635c0,0.9-0.4,1.3-1.3,1.3h-4.3c-0.9,0-1.3-0.4-1.3-1.3v-63.6c-4.7,11.8-9,22.3-12.8,31.6c-1.6,4-3.2,7.9-4.7,11.7
			c-1.5,3.8-2.9,7.2-4.1,10.2c-1.2,3-2.2,5.4-3,7.2c-0.8,1.9-1.2,2.8-1.2,2.9c-0.3,0.6-0.8,1-1.4,1h-4.3c-0.4,0-0.8-0.1-1-0.2
			c-0.2-0.2-0.3-0.4-0.5-0.7l-26.5-63.5V635c0,0.9-0.4,1.3-1.3,1.3h-4.3c-0.9,0-1.3-0.4-1.3-1.3v-67.2c0-1.3,0.1-2.1,0.3-2.3
			c0.2-0.2,1-0.3,2.4-0.3h7.2c0.5,0,0.9,0.1,1.1,0.2c0.2,0.1,0.4,0.4,0.6,1l25.5,62.1l24.8-62.2c0.3-0.7,0.8-1.1,1.5-1.1h7.3
			c1.3,0,2.1,0.1,2.3,0.3c0.2,0.2,0.3,1,0.3,2.3V635z"/>
		<path class="st2" d="M-375.1,764.8h351v90.2h-351V764.8z"/>
		<path class="st11" d="M-342.7,866v-58.2H-365v-10.2h57v10.2h-22.3V866H-342.7z M-299.4,866v-68.4h45.7v9.7h-33.6v19h31.7v9.8
			h-31.7v20.2h33.6v9.7H-299.4z M-238.4,866h-12.5l30.9-68.4h10.1l30.9,68.4h-12.3l-25.1-58.8h3.4L-238.4,866z M-237.2,850l4.7-9.6
			h34.8l4.5,9.6H-237.2z M-171.4,866v-68.4h9.9l25.8,58.9h-4.7l25.6-58.9h9.9V866h-11l-0.1-50.6l3.3,0.8L-134,866h-8.2l-21.8-49.8
			l3.5-0.8l0.1,50.6H-171.4z"/>
		<path class="st2" d="M548-62v282.6h-56.8V-62L548-62z"/>
		<path class="st12" d="M517.3,152.7v-3.1h12.4l-1.5-4.1h2.7l2.5,7v0.2H517.3z M519.7,160.9c0,0.8,0.1,1.5,0.3,2.1
			c0.2,0.6,0.4,1.1,0.8,1.5c0.3,0.4,0.8,0.7,1.2,1c0.5,0.2,1,0.4,1.6,0.5c-0.3-0.3-0.6-0.7-0.8-1.2c-0.2-0.5-0.3-1.1-0.3-1.8
			c0-0.8,0.1-1.4,0.4-2c0.3-0.6,0.7-1.1,1.1-1.5c0.5-0.4,1.1-0.7,1.7-0.9c0.7-0.2,1.4-0.3,2.1-0.3c0.8,0,1.5,0.1,2.2,0.4
			c0.7,0.2,1.3,0.6,1.8,1.1c0.5,0.5,0.9,1,1.2,1.7c0.3,0.7,0.5,1.4,0.5,2.2c0,0.8-0.2,1.6-0.5,2.3c-0.3,0.7-0.8,1.2-1.4,1.7
			c-0.6,0.5-1.3,0.8-2.1,1.1c-0.8,0.2-1.7,0.4-2.7,0.4h-1.1c-1.3,0-2.5-0.2-3.5-0.5c-1.1-0.3-2-0.8-2.8-1.5
			c-0.8-0.7-1.4-1.5-1.8-2.5c-0.4-1-0.7-2.2-0.7-3.7v-0.2h2.6V160.9z M524.8,163.7c0,0.3,0,0.5,0.1,0.8c0.1,0.2,0.2,0.5,0.3,0.6
			c0.1,0.2,0.3,0.4,0.5,0.5c0.2,0.1,0.4,0.3,0.6,0.3h1.1c0.6,0,1.1-0.1,1.5-0.2c0.4-0.1,0.8-0.3,1.1-0.5c0.3-0.2,0.5-0.5,0.7-0.8
			c0.2-0.3,0.2-0.6,0.2-0.9c0-0.4-0.1-0.7-0.3-1c-0.2-0.3-0.4-0.5-0.7-0.7c-0.3-0.2-0.6-0.3-1-0.4c-0.4-0.1-0.8-0.2-1.2-0.2
			c-0.4,0-0.8,0-1.2,0.1s-0.7,0.2-1,0.4c-0.3,0.2-0.5,0.4-0.7,0.7C524.9,163,524.8,163.3,524.8,163.7z M525.9,175.3
			c0.4,0,0.7,0.1,1,0.2c0.3,0.1,0.6,0.3,0.8,0.5c0.2,0.2,0.4,0.5,0.5,0.8c0.1,0.3,0.2,0.7,0.2,1.1c0,0.4-0.1,0.8-0.2,1.1
			c-0.1,0.3-0.3,0.6-0.5,0.8c-0.2,0.2-0.5,0.4-0.8,0.5c-0.3,0.1-0.7,0.2-1,0.2h-0.6c-0.4,0-0.7-0.1-1-0.2c-0.3-0.1-0.6-0.3-0.8-0.5
			c-0.2-0.2-0.4-0.5-0.5-0.8c-0.1-0.3-0.2-0.7-0.2-1.1c0-0.4,0.1-0.8,0.2-1.1c0.1-0.3,0.3-0.6,0.5-0.8c0.2-0.2,0.5-0.4,0.8-0.5
			c0.3-0.1,0.6-0.2,1-0.2H525.9z M517.3,196.5v-11h2.1l5.6,5.2c0.4,0.4,0.8,0.8,1.2,1c0.4,0.3,0.7,0.5,1,0.7
			c0.3,0.2,0.6,0.3,0.8,0.4c0.3,0.1,0.5,0.1,0.8,0.1c0.4,0,0.7-0.1,1-0.2c0.3-0.1,0.5-0.2,0.7-0.4c0.2-0.2,0.3-0.4,0.5-0.7
			c0.1-0.3,0.2-0.5,0.2-0.9c0-0.9-0.2-1.5-0.7-1.9c-0.5-0.4-1.1-0.6-2-0.6v-3.1c0.7,0,1.4,0.1,2,0.4c0.6,0.3,1.2,0.7,1.7,1.2
			c0.5,0.5,0.9,1.1,1.1,1.8c0.3,0.7,0.4,1.5,0.4,2.3c0,0.8-0.1,1.5-0.3,2.2c-0.2,0.6-0.6,1.2-1,1.6c-0.4,0.4-0.9,0.8-1.5,1
			c-0.6,0.2-1.2,0.3-1.9,0.3c-0.5,0-1-0.1-1.5-0.2c-0.5-0.2-1-0.4-1.4-0.7c-0.5-0.3-0.9-0.7-1.4-1.1c-0.5-0.4-1-0.9-1.5-1.4l-3.2-3
			v7.1H517.3z M523.4,210.1c-1,0-2-0.1-2.8-0.4c-0.8-0.2-1.5-0.6-2-1c-0.5-0.4-0.9-1-1.2-1.7c-0.3-0.6-0.4-1.4-0.4-2.2
			c0-0.8,0.1-1.5,0.4-2.2c0.3-0.6,0.7-1.2,1.2-1.7c0.5-0.4,1.2-0.8,2-1c0.8-0.2,1.7-0.4,2.8-0.4h3.9c1,0,1.9,0.1,2.7,0.4
			c0.8,0.2,1.5,0.6,2,1c0.5,0.5,0.9,1,1.2,1.7c0.3,0.6,0.4,1.4,0.4,2.2c0,0.8-0.1,1.5-0.4,2.2c-0.3,0.6-0.7,1.2-1.2,1.6
			c-0.5,0.5-1.2,0.8-2,1c-0.8,0.2-1.7,0.4-2.7,0.4H523.4z M524.7,202.7l3.2,4.3c1.1,0,1.9-0.2,2.4-0.6c0.5-0.4,0.8-0.9,0.8-1.6
			c0-0.7-0.3-1.3-0.8-1.6c-0.6-0.4-1.4-0.5-2.5-0.5H524.7z M525.8,207l-3.2-4.3c-1.1,0-1.8,0.2-2.4,0.6c-0.5,0.4-0.8,0.9-0.8,1.6
			c0,0.7,0.3,1.3,0.8,1.6c0.6,0.4,1.4,0.5,2.6,0.5H525.8z"/>
		<path class="st2" d="M-550,55.6h430.2v136.3H-550V55.6z"/>
		<path class="st10" d="M-540.6,107.9l10.3-33.6h2.3l-10.3,33.6H-540.6z M-519.6,102.2c-2,0-3.5-0.6-4.4-1.9
			c-0.9-1.2-1.4-3.1-1.4-5.5V82.9h3.2v11.5c0,1.8,0.3,3.1,0.8,3.9c0.6,0.8,1.4,1.2,2.7,1.2c1,0,1.8-0.2,2.6-0.8s1.6-1.3,2.5-2.4
			V82.9h3.2v18.8h-2.6l-0.3-2.9h-0.1c-0.9,1-1.8,1.9-2.8,2.5C-517.1,101.9-518.2,102.2-519.6,102.2z M-499.1,102.2
			c-1.3,0-2.6-0.2-3.8-0.7c-1.2-0.5-2.3-1.1-3.2-1.9l1.6-2.1c0.8,0.7,1.7,1.2,2.5,1.6c0.9,0.4,1.9,0.6,3,0.6c1.2,0,2.2-0.3,2.8-0.8
			c0.6-0.6,0.9-1.3,0.9-2.1c0-0.5-0.1-0.9-0.4-1.3c-0.2-0.4-0.6-0.7-1-1c-0.4-0.3-0.9-0.5-1.4-0.7c-0.5-0.2-1-0.4-1.5-0.6
			c-0.7-0.2-1.3-0.5-2-0.8c-0.7-0.3-1.3-0.7-1.8-1.1c-0.5-0.4-0.9-0.9-1.3-1.5c-0.3-0.6-0.5-1.3-0.5-2.1c0-0.7,0.1-1.4,0.4-2.1
			c0.3-0.7,0.7-1.2,1.3-1.7c0.6-0.5,1.2-0.9,2-1.1c0.8-0.3,1.7-0.4,2.7-0.4c1.2,0,2.3,0.2,3.3,0.6c1,0.4,1.8,0.9,2.6,1.5l-1.5,2
			c-0.6-0.5-1.3-0.9-2-1.2c-0.7-0.3-1.5-0.5-2.3-0.5c-1.2,0-2.1,0.3-2.6,0.8c-0.6,0.5-0.8,1.2-0.8,1.9c0,0.4,0.1,0.8,0.3,1.2
			c0.2,0.3,0.6,0.6,0.9,0.8c0.4,0.2,0.8,0.5,1.3,0.7c0.5,0.2,1,0.4,1.6,0.6c0.7,0.3,1.4,0.5,2,0.8c0.7,0.3,1.3,0.6,1.8,1.1
			c0.5,0.4,1,1,1.3,1.6c0.3,0.6,0.5,1.4,0.5,2.2c0,0.8-0.1,1.5-0.4,2.2c-0.3,0.7-0.7,1.3-1.3,1.8c-0.6,0.5-1.3,0.9-2.2,1.2
			C-497,102-498,102.2-499.1,102.2z M-480.2,102.2c-1.3,0-2.4-0.2-3.5-0.7c-1.1-0.5-2-1.1-2.9-1.9c-0.8-0.8-1.5-1.9-1.9-3.1
			c-0.5-1.2-0.7-2.6-0.7-4.1c0-1.5,0.2-2.9,0.7-4.1c0.5-1.2,1.1-2.3,1.9-3.1c0.8-0.9,1.7-1.5,2.7-2c1-0.5,2.1-0.7,3.1-0.7
			c1.2,0,2.2,0.2,3.2,0.6c0.9,0.4,1.7,1,2.4,1.8c0.6,0.8,1.1,1.7,1.5,2.8c0.3,1.1,0.5,2.3,0.5,3.6c0,0.3,0,0.7,0,1
			c0,0.3,0,0.6-0.1,0.8h-12.7c0.1,2,0.8,3.6,1.9,4.8c1.1,1.2,2.6,1.8,4.4,1.8c0.9,0,1.7-0.1,2.5-0.4c0.8-0.3,1.5-0.6,2.2-1.1
			l1.1,2.1c-0.8,0.5-1.7,1-2.8,1.4C-477.8,102-478.9,102.2-480.2,102.2z M-486.1,90.8h10c0-1.9-0.4-3.4-1.2-4.3
			c-0.8-1-2-1.5-3.4-1.5c-0.7,0-1.3,0.1-1.9,0.4c-0.6,0.2-1.2,0.6-1.6,1.1c-0.5,0.5-0.9,1.1-1.2,1.8
			C-485.8,89.1-486,89.9-486.1,90.8z M-468.6,101.7V82.9h2.6l0.3,3.4h0.1c0.6-1.2,1.4-2.1,2.3-2.8c0.9-0.7,1.9-1,3-1
			c0.7,0,1.4,0.1,2,0.4l-0.6,2.8c-0.3-0.1-0.6-0.2-0.8-0.2c-0.3-0.1-0.6-0.1-1-0.1c-0.8,0-1.6,0.3-2.5,1c-0.9,0.6-1.6,1.8-2.2,3.4
			v12.1H-468.6z M-455.2,101.7V82.9h2.6l0.3,2.7h0.1c0.9-0.9,1.8-1.7,2.8-2.3c1-0.6,2.2-0.9,3.5-0.9c2,0,3.4,0.6,4.3,1.9
			c0.9,1.2,1.4,3.1,1.4,5.5v11.9h-3.2V90.2c0-1.8-0.3-3-0.8-3.8c-0.6-0.8-1.5-1.2-2.7-1.2c-1,0-1.8,0.2-2.6,0.7
			c-0.8,0.5-1.6,1.2-2.5,2.2v13.6H-455.2z M-429.8,102.2c-1.6,0-2.9-0.5-3.9-1.4c-1-0.9-1.6-2.2-1.6-4c0-2.1,0.9-3.6,2.7-4.7
			c1.8-1.1,4.8-1.9,8.8-2.3c0-0.6-0.1-1.2-0.2-1.7c-0.1-0.6-0.3-1.1-0.6-1.5c-0.3-0.4-0.7-0.8-1.2-1.1c-0.5-0.3-1.1-0.4-1.9-0.4
			c-1.1,0-2.1,0.2-3,0.6c-0.9,0.4-1.8,0.9-2.5,1.4l-1.2-2.2c0.9-0.6,1.9-1.1,3.2-1.6c1.3-0.5,2.7-0.8,4.2-0.8c2.3,0,4,0.7,5,2.1
			s1.5,3.3,1.5,5.6v11.5h-2.6l-0.3-2.2h-0.1c-0.9,0.7-1.9,1.4-2.9,1.9S-428.6,102.2-429.8,102.2z M-428.8,99.6
			c0.9,0,1.8-0.2,2.5-0.6c0.8-0.4,1.7-1.1,2.6-1.9v-5.2c-1.6,0.2-2.9,0.4-4,0.7c-1.1,0.3-1.9,0.6-2.6,1c-0.7,0.4-1.1,0.8-1.4,1.3
			c-0.3,0.5-0.4,1-0.4,1.6c0,1.1,0.3,1.9,1,2.3C-430.5,99.4-429.8,99.6-428.8,99.6z M-414.6,101.7V82.9h2.6l0.3,2.7h0.1
			c0.8-0.9,1.7-1.7,2.7-2.3c1-0.6,2-0.9,3.1-0.9c1.4,0,2.6,0.3,3.4,1c0.8,0.6,1.4,1.5,1.8,2.6c1-1.1,2-2,3-2.6c1-0.7,2.1-1,3.2-1
			c1.9,0,3.4,0.6,4.3,1.9c0.9,1.2,1.4,3.1,1.4,5.5v11.9h-3.2V90.2c0-1.8-0.3-3-0.9-3.8c-0.6-0.8-1.4-1.2-2.6-1.2c-1.4,0-3,1-4.7,2.9
			v13.6h-3.2V90.2c0-1.8-0.3-3-0.9-3.8c-0.6-0.8-1.4-1.2-2.7-1.2c-1.4,0-3,1-4.7,2.9v13.6H-414.6z M-374.9,102.2
			c-1.3,0-2.4-0.2-3.5-0.7c-1.1-0.5-2-1.1-2.9-1.9c-0.8-0.8-1.5-1.9-1.9-3.1c-0.5-1.2-0.7-2.6-0.7-4.1c0-1.5,0.2-2.9,0.7-4.1
			c0.5-1.2,1.1-2.3,1.9-3.1c0.8-0.9,1.7-1.5,2.7-2c1-0.5,2.1-0.7,3.1-0.7c1.2,0,2.2,0.2,3.2,0.6c0.9,0.4,1.7,1,2.4,1.8
			c0.6,0.8,1.1,1.7,1.5,2.8c0.3,1.1,0.5,2.3,0.5,3.6c0,0.3,0,0.7,0,1c0,0.3,0,0.6-0.1,0.8h-12.7c0.1,2,0.8,3.6,1.9,4.8
			c1.1,1.2,2.6,1.8,4.4,1.8c0.9,0,1.7-0.1,2.5-0.4c0.8-0.3,1.5-0.6,2.2-1.1l1.1,2.1c-0.8,0.5-1.7,1-2.8,1.4
			C-372.5,102-373.7,102.2-374.9,102.2z M-380.9,90.8h10c0-1.9-0.4-3.4-1.2-4.3c-0.8-1-2-1.5-3.4-1.5c-0.7,0-1.3,0.1-1.9,0.4
			c-0.6,0.2-1.2,0.6-1.6,1.1c-0.5,0.5-0.9,1.1-1.2,1.8C-380.5,89.1-380.7,89.9-380.9,90.8z"/>
		<path class="st13" d="M517.9,207.6v-3.1h12.4l-1.5-4.1h2.7l2.5,7v0.2H517.9z M526.2,175.3c0.4,0,0.7,0.1,1,0.2
			c0.3,0.1,0.6,0.3,0.8,0.5c0.2,0.2,0.4,0.5,0.5,0.8c0.1,0.3,0.2,0.7,0.2,1.1c0,0.4-0.1,0.8-0.2,1.1c-0.1,0.3-0.3,0.6-0.5,0.8
			c-0.2,0.2-0.5,0.4-0.8,0.5c-0.3,0.1-0.7,0.2-1,0.2h-0.6c-0.4,0-0.7-0.1-1-0.2c-0.3-0.1-0.6-0.3-0.8-0.5c-0.2-0.2-0.4-0.5-0.5-0.8
			c-0.1-0.3-0.2-0.7-0.2-1.1c0-0.4,0.1-0.8,0.2-1.1c0.1-0.3,0.3-0.6,0.5-0.8c0.2-0.2,0.5-0.4,0.8-0.5c0.3-0.1,0.6-0.2,1-0.2H526.2z
			 M517.9,155.6v-11h2.1l5.6,5.2c0.4,0.4,0.8,0.8,1.2,1c0.4,0.3,0.7,0.5,1,0.7c0.3,0.2,0.6,0.3,0.8,0.4c0.3,0.1,0.5,0.1,0.8,0.1
			c0.4,0,0.7-0.1,1-0.2c0.3-0.1,0.5-0.2,0.7-0.4c0.2-0.2,0.3-0.4,0.5-0.7c0.1-0.3,0.2-0.5,0.2-0.9c0-0.9-0.2-1.5-0.7-1.9
			c-0.5-0.4-1.1-0.6-2-0.6v-3.1c0.7,0,1.4,0.1,2,0.4c0.6,0.3,1.2,0.7,1.7,1.2c0.5,0.5,0.9,1.1,1.1,1.8c0.3,0.7,0.4,1.5,0.4,2.3
			c0,0.8-0.1,1.5-0.3,2.2c-0.2,0.6-0.6,1.2-1,1.6c-0.4,0.4-0.9,0.8-1.5,1c-0.6,0.2-1.2,0.3-1.9,0.3c-0.5,0-1-0.1-1.5-0.2
			c-0.5-0.2-1-0.4-1.4-0.7c-0.5-0.3-0.9-0.7-1.4-1.1c-0.5-0.4-1-0.9-1.5-1.4l-3.2-3v7.1H517.9z M517.8,196.9v-11h2.1l5.6,5.2
			c0.4,0.4,0.8,0.8,1.2,1c0.4,0.3,0.7,0.5,1,0.7c0.3,0.2,0.6,0.3,0.8,0.4c0.3,0.1,0.5,0.1,0.8,0.1c0.4,0,0.7-0.1,1-0.2
			c0.3-0.1,0.5-0.2,0.7-0.4c0.2-0.2,0.3-0.4,0.5-0.7c0.1-0.3,0.2-0.5,0.2-0.9c0-0.9-0.2-1.5-0.7-1.9c-0.5-0.4-1.1-0.6-2-0.6v-3.1
			c0.7,0,1.4,0.1,2,0.4c0.6,0.3,1.2,0.7,1.7,1.2c0.5,0.5,0.9,1.1,1.1,1.8c0.3,0.7,0.4,1.5,0.4,2.3c0,0.8-0.1,1.5-0.3,2.2
			c-0.2,0.6-0.6,1.2-1,1.6c-0.4,0.4-0.9,0.8-1.5,1c-0.6,0.2-1.2,0.3-1.9,0.3c-0.5,0-1-0.1-1.5-0.2c-0.5-0.2-1-0.4-1.4-0.7
			c-0.5-0.3-0.9-0.7-1.4-1.1c-0.5-0.4-1-0.9-1.5-1.4l-3.2-3v7.1H517.8z M524,169.1c-1,0-2-0.1-2.8-0.4c-0.8-0.2-1.5-0.6-2-1
			c-0.5-0.4-0.9-1-1.2-1.7c-0.3-0.6-0.4-1.4-0.4-2.2c0-0.8,0.1-1.5,0.4-2.2c0.3-0.6,0.7-1.2,1.2-1.7c0.5-0.4,1.2-0.8,2-1
			c0.8-0.2,1.7-0.4,2.8-0.4h3.9c1,0,1.9,0.1,2.7,0.4c0.8,0.2,1.5,0.6,2,1c0.5,0.5,0.9,1,1.2,1.7c0.3,0.6,0.4,1.4,0.4,2.2
			c0,0.8-0.1,1.5-0.4,2.2c-0.3,0.6-0.7,1.2-1.2,1.6c-0.5,0.5-1.2,0.8-2,1c-0.8,0.2-1.7,0.4-2.7,0.4H524z M525.3,161.7l3.2,4.3
			c1.1,0,1.9-0.2,2.4-0.6c0.5-0.4,0.8-0.9,0.8-1.6c0-0.7-0.3-1.3-0.8-1.6c-0.6-0.4-1.4-0.5-2.5-0.5H525.3z M526.5,166l-3.2-4.3
			c-1.1,0-1.8,0.2-2.4,0.6c-0.5,0.4-0.8,0.9-0.8,1.6c0,0.7,0.3,1.3,0.8,1.6c0.6,0.4,1.4,0.5,2.6,0.5H526.5z"/>
	</g>
</g>
</svg>
