<svg xmlns="http://www.w3.org/2000/svg" xmlns:xlink="http://www.w3.org/1999/xlink" width="748" height="190" viewBox="0 0 748 190">
  <metadata><?xpacket begin="﻿" id="W5M0MpCehiHzreSzNTczkc9d"?>
<x:xmpmeta xmlns:x="adobe:ns:meta/" x:xmptk="Adobe XMP Core 5.6-c142 79.160924, 2017/07/13-01:06:39        ">
   <rdf:RDF xmlns:rdf="http://www.w3.org/1999/02/22-rdf-syntax-ns#">
      <rdf:Description rdf:about=""/>
   </rdf:RDF>
</x:xmpmeta>
                                                                                                    
                                                                                                    
                                                                                                    
                                                                                                    
                                                                                                    
                                                                                                    
                                                                                                    
                                                                                                    
                                                                                                    
                                                                                                    
                                                                                                    
                                                                                                    
                                                                                                    
                                                                                                    
                                                                                                    
                                                                                                    
                                                                                                    
                                                                                                    
                                                                                                    
                                                                                                    
                           
<?xpacket end="w"?></metadata>
<defs>
    <style>
      .cls-1 {
        fill-rule: evenodd;
        fill: url(#linear-gradient);
      }
    </style>
    <linearGradient id="linear-gradient" y1="95.5" x2="748" y2="95.5" gradientUnits="userSpaceOnUse">
      <stop offset="0" stop-color="#cc9a49"/>
      <stop offset="0.25" stop-color="#f6dc81"/>
      <stop offset="0.497" stop-color="#cc9a49"/>
      <stop offset="0.749" stop-color="#f6dc81"/>
      <stop offset="1" stop-color="#cc9a49"/>
    </linearGradient>
  </defs>
  <path id="Banner" class="cls-1" d="M374,1l37,37L374,75,337,39Zm0,13L350,38l24,24,24-24ZM678,73v9H437l38-39H455L401,98v1H694c2.642-5.826,6.309-5.673,15-5v15H695v-5H394l-11,12H748v74H0V116H365l-11-12H54v5H40V94H54v5H348L294,45c-3.24-3.13-13.6-2.34-20-2l38,39H71V73H289V72L252,34h70l52,52h2l52-52h69L460,72v1H678ZM300,43l56,56,16-1L318,43H300Zm131,0L376,99h17l55-56H431Zm-70,61,12,12h3l11-12H361Z"/>
</svg>
