<svg xmlns="http://www.w3.org/2000/svg" width="4751.632" height="6248.058" viewBox="0 0 2375.816 3124.029">
  <metadata><?xpacket begin="﻿" id="W5M0MpCehiHzreSzNTczkc9d"?>
<x:xmpmeta xmlns:x="adobe:ns:meta/" x:xmptk="Adobe XMP Core 5.6-c142 79.160924, 2017/07/13-01:06:39        ">
   <rdf:RDF xmlns:rdf="http://www.w3.org/1999/02/22-rdf-syntax-ns#">
      <rdf:Description rdf:about=""/>
   </rdf:RDF>
</x:xmpmeta>
                                                                                                    
                                                                                                    
                                                                                                    
                                                                                                    
                                                                                                    
                                                                                                    
                                                                                                    
                                                                                                    
                                                                                                    
                                                                                                    
                                                                                                    
                                                                                                    
                                                                                                    
                                                                                                    
                                                                                                    
                                                                                                    
                                                                                                    
                                                                                                    
                                                                                                    
                                                                                                    
                           
<?xpacket end="w"?></metadata>
<defs>
    <style>
      .cls-1 {
        fill: none;
        stroke: #cb9947;
        stroke-width: 10px;
        fill-rule: evenodd;
      }
    </style>
  </defs>
  <path id="Border" class="cls-1" d="M1946.68,109.556c0,36.166-28.35,65.593-63.2,65.593s-63.22-29.427-63.22-65.593V94.795H1637.09v14.761c0,36.166-28.35,65.593-63.18,65.593s-63.19-29.427-63.19-65.593V94.795H1327.49v14.761c0,36.166-28.36,65.593-63.21,65.593-34.81,0-63.12-29.427-63.12-65.593V94.795H1017.85v14.761c0,36.166-28.307,65.593-63.108,65.593-34.837,0-63.182-29.427-63.182-65.593V94.795H708.251v14.761c0,36.166-28.331,65.593-63.147,65.593-34.85,0-63.209-29.427-63.209-65.593V94.795H398.752v14.761c0,36.166-28.372,65.593-63.244,65.593-34.816,0-63.147-29.427-63.147-65.593V94.795H89.087v206.03h14.221c34.878,0,63.251,29.428,63.251,65.6S138.186,432,103.308,432H89.087V622.2h14.221c34.878,0,63.251,29.412,63.251,65.558,0,36.174-28.373,65.6-63.251,65.6H89.087v190.2h14.221c34.878,0,63.251,29.406,63.251,65.56s-28.373,65.58-63.251,65.58H89.087v190.19h14.221c34.878,0,63.251,29.41,63.251,65.56s-28.373,65.58-63.251,65.58H89.087v190.2h14.221c34.878,0,63.251,29.43,63.251,65.61s-28.373,65.59-63.251,65.59H89.087v190.16h14.221c34.878,0,63.251,29.4,63.251,65.56s-28.373,65.55-63.251,65.55H89.087v190.25h14.221c34.878,0,63.251,29.42,63.251,65.59,0,36.15-28.373,65.56-63.251,65.56H89.087v190.16h14.221c34.878,0,63.251,29.42,63.251,65.58s-28.373,65.59-63.251,65.59H89.087v206.01h14.221c34.878,0,63.251,29.45,63.251,65.65,0,36.15-28.373,65.56-63.251,65.56H89.087V3208.8H272.361v-14.76c0-36.16,28.331-65.56,63.147-65.56,34.872,0,63.244,29.4,63.244,65.56v14.76H581.9v-14.76c0-36.16,28.359-65.56,63.209-65.56,34.816,0,63.147,29.4,63.147,65.56v14.76H891.56v-14.76c0-36.16,28.345-65.56,63.182-65.56,34.8,0,63.108,29.4,63.108,65.56v14.76h183.31v-14.76c0-36.16,28.31-65.56,63.12-65.56,34.85,0,63.21,29.4,63.21,65.56v14.76h183.23v-14.76c0-36.16,28.35-65.56,63.19-65.56s63.18,29.4,63.18,65.56v14.76h183.17v-14.76c0-36.16,28.36-65.56,63.22-65.56s63.2,29.4,63.2,65.56v14.76h183.29v-14.76c0-36.16,28.32-65.56,63.13-65.56s63.12,29.4,63.12,65.56v14.76h198.51V3018.64h-14.22c-34.81,0-63.14-29.41-63.14-65.56,0-36.2,28.33-65.65,63.14-65.65h14.22V2681.42h-14.22c-34.81,0-63.14-29.42-63.14-65.59s28.33-65.58,63.14-65.58h14.22V2360.09h-14.22c-34.81,0-63.14-29.41-63.14-65.56,0-36.17,28.33-65.59,63.14-65.59h14.22V2038.69h-14.22c-34.81,0-63.14-29.4-63.14-65.55s28.33-65.56,63.14-65.56h14.22V1717.42h-14.22c-34.81,0-63.14-29.42-63.14-65.59s28.33-65.61,63.14-65.61h14.22v-190.2h-14.22c-34.81,0-63.14-29.42-63.14-65.58s28.33-65.56,63.14-65.56h14.22V1074.69h-14.22c-34.81,0-63.14-29.42-63.14-65.58s28.33-65.56,63.14-65.56h14.22v-190.2h-14.22c-34.81,0-63.14-29.427-63.14-65.6,0-36.146,28.33-65.558,63.14-65.558h14.22V432h-14.22c-34.81,0-63.14-29.414-63.14-65.574s28.33-65.6,63.14-65.6h14.21l0.19-205.965H2256.42v14.761c0,36.144-28.36,65.543-63.22,65.543-34.83,0-63.16-29.4-63.16-65.543V94.867l-183.36-.08v14.769Zm-153.41,14.76c6.89,45.415,44.53,80.355,90.21,80.355,45.66,0,83.31-34.94,90.2-80.347l129.35,0.05c6.9,45.392,44.54,80.311,90.17,80.311,45.66,0,83.33-34.919,90.21-80.3h143.03c-0.02,22.776-.12,127.794-0.13,148.414-43.74,7.156-77.39,46.236-77.39,93.63s33.64,86.447,77.37,93.6V594.164c-43.73,7.157-77.37,46.214-77.37,93.589,0,47.395,33.64,86.466,77.37,93.63V915.519c-43.73,7.158-77.37,46.214-77.37,93.591s33.64,86.45,77.37,93.61v134.13c-43.73,7.16-77.37,46.22-77.37,93.59s33.64,86.45,77.37,93.61v134.14c-43.73,7.16-77.37,46.24-77.37,93.64,0,47.38,33.64,86.46,77.37,93.61v134.12c-43.73,7.15-77.37,46.21-77.37,93.58s33.64,86.43,77.37,93.58v134.2c-43.73,7.15-77.37,46.23-77.37,93.61,0,47.36,33.64,86.43,77.37,93.58v134.11c-43.73,7.15-77.37,46.23-77.37,93.61s33.64,86.46,77.37,93.61v149.97c-43.73,7.17-77.37,46.26-77.37,93.67,0,47.37,33.64,86.43,77.37,93.58v132.62H2283.23c-6.9-45.4-44.51-80.32-90.13-80.32s-83.24,34.92-90.13,80.32H1973.68c-6.89-45.4-44.54-80.32-90.2-80.32s-83.32,34.92-90.21,80.32H1664.08c-6.88-45.4-44.52-80.32-90.17-80.32s-83.3,34.92-90.18,80.32H1354.49c-6.89-45.4-44.55-80.32-90.21-80.32-45.62,0-83.23,34.92-90.12,80.32h-129.3c-6.89-45.4-44.5-80.32-90.118-80.32-45.649,0-83.292,34.92-90.186,80.32h-129.3c-6.895-45.4-44.517-80.32-90.151-80.32-45.662,0-83.319,34.92-90.214,80.32H425.756c-6.9-45.4-44.565-80.32-90.248-80.32-45.635,0-83.256,34.92-90.151,80.32H117.529V3046.67c43.78-7.15,77.472-46.21,77.472-93.59,0-47.42-33.692-86.52-77.472-93.67V2709.46c43.78-7.17,77.472-46.23,77.472-93.63s-33.692-86.46-77.472-93.62V2388.12c43.78-7.15,77.472-46.21,77.472-93.59,0-47.4-33.692-86.46-77.472-93.63V2066.73c43.78-7.15,77.472-46.21,77.472-93.59s-33.692-86.45-77.472-93.6V1745.46c43.78-7.17,77.472-46.23,77.472-93.63s-33.692-86.49-77.472-93.64V1424.05c43.78-7.15,77.472-46.22,77.472-93.61,0-47.37-33.692-86.44-77.472-93.59V1102.72c43.78-7.15,77.472-46.22,77.472-93.61s-33.692-86.441-77.472-93.591V781.383c43.78-7.149,77.472-46.228,77.472-93.63,0-47.375-33.692-86.439-77.472-93.589V460.028c43.78-7.149,77.472-46.221,77.472-93.6s-33.692-86.479-77.472-93.63V124.316H245.357c6.887,45.415,44.516,80.355,90.151,80.355,45.683,0,83.347-34.94,90.248-80.355H554.89c6.895,45.415,44.545,80.355,90.214,80.355,45.634,0,83.263-34.94,90.151-80.355h129.3c6.894,45.415,44.53,80.355,90.186,80.355,45.618,0,83.228-34.94,90.118-80.355h129.3c6.89,45.415,44.49,80.355,90.12,80.355,45.66,0,83.32-34.94,90.21-80.355h129.24c6.88,45.415,44.52,80.355,90.18,80.355s83.29-34.94,90.19-80.355h129.17Z" transform="translate(-84.094 -89.781)"/>
</svg>
